<?xml version="1.0" encoding="utf-8" ?>
<svg baseProfile="full" height="1024" version="1.1" width="1024" xmlns="http://www.w3.org/2000/svg" xmlns:ev="http://www.w3.org/2001/xml-events" xmlns:xlink="http://www.w3.org/1999/xlink"><defs /><path d="M 511 162 L 509 164 L 508 164 L 507 165 L 506 165 L 504 167 L 503 167 L 502 168 L 501 168 L 499 170 L 498 170 L 496 172 L 495 172 L 494 173 L 493 173 L 491 175 L 490 175 L 489 176 L 488 176 L 486 178 L 485 178 L 483 180 L 482 180 L 481 181 L 480 181 L 478 183 L 477 183 L 475 185 L 474 185 L 472 187 L 471 187 L 470 188 L 469 188 L 467 190 L 466 190 L 464 192 L 463 192 L 462 193 L 461 193 L 460 194 L 459 194 L 457 196 L 456 196 L 454 198 L 453 198 L 452 199 L 451 199 L 449 201 L 448 201 L 447 202 L 446 202 L 444 204 L 443 204 L 441 206 L 440 206 L 439 207 L 438 207 L 437 208 L 436 208 L 434 210 L 433 210 L 431 212 L 430 212 L 429 213 L 428 213 L 426 215 L 425 215 L 423 217 L 422 217 L 421 218 L 420 218 L 418 220 L 417 220 L 416 221 L 415 221 L 413 223 L 412 223 L 410 225 L 409 225 L 408 226 L 407 226 L 405 228 L 404 228 L 402 230 L 401 230 L 400 231 L 399 231 L 397 233 L 396 233 L 394 235 L 393 235 L 392 236 L 391 236 L 389 238 L 388 238 L 386 240 L 385 240 L 384 241 L 383 241 L 381 243 L 380 243 L 378 245 L 377 245 L 376 246 L 375 246 L 373 248 L 372 248 L 370 250 L 369 250 L 368 251 L 367 251 L 365 253 L 364 253 L 362 255 L 361 255 L 360 256 L 359 256 L 357 258 L 356 258 L 354 260 L 353 260 L 352 261 L 351 261 L 349 263 L 348 263 L 346 265 L 345 265 L 344 266 L 343 266 L 341 268 L 340 268 L 339 269 L 338 269 L 336 271 L 335 271 L 333 273 L 332 273 L 331 274 L 330 274 L 328 276 L 327 276 L 326 277 L 325 277 L 323 279 L 322 279 L 320 281 L 319 281 L 318 282 L 317 282 L 315 284 L 314 284 L 312 286 L 311 286 L 310 287 L 309 287 L 307 289 L 306 289 L 304 291 L 303 291 L 302 292 L 301 292 L 299 294 L 298 294 L 296 296 L 295 296 L 294 297 L 293 297 L 291 299 L 290 299 L 288 301 L 287 301 L 286 302 L 285 302 L 283 304 L 282 304 L 280 306 L 279 306 L 278 307 L 277 307 L 275 309 L 274 309 L 272 311 L 271 311 L 269 313 L 268 313 L 267 314 L 266 314 L 264 316 L 263 316 L 261 318 L 260 318 L 259 319 L 258 319 L 256 321 L 255 321 L 254 322 L 253 322 L 251 324 L 250 324 L 248 326 L 247 326 L 246 327 L 245 327 L 243 329 L 242 329 L 240 331 L 239 331 L 238 332 L 237 332 L 235 334 L 234 334 L 232 336 L 231 336 L 230 337 L 229 337 L 227 339 L 226 339 L 225 340 L 224 340 L 222 342 L 221 342 L 219 344 L 218 344 L 216 346 L 215 346 L 214 347 L 213 347 L 211 349 L 210 349 L 208 351 L 207 351 L 207 690 L 209 692 L 210 692 L 212 694 L 213 694 L 214 695 L 215 695 L 217 697 L 218 697 L 219 698 L 220 698 L 222 700 L 223 700 L 225 702 L 226 702 L 227 703 L 228 703 L 230 705 L 231 705 L 233 707 L 234 707 L 236 709 L 237 709 L 238 710 L 239 710 L 241 712 L 242 712 L 243 713 L 244 713 L 246 715 L 247 715 L 249 717 L 250 717 L 252 719 L 253 719 L 254 720 L 255 720 L 257 722 L 258 722 L 259 723 L 260 723 L 262 725 L 263 725 L 265 727 L 266 727 L 267 728 L 268 728 L 270 730 L 271 730 L 273 732 L 274 732 L 275 733 L 276 733 L 278 735 L 279 735 L 281 737 L 282 737 L 283 738 L 284 738 L 286 740 L 287 740 L 289 742 L 290 742 L 292 744 L 293 744 L 294 745 L 295 745 L 297 747 L 298 747 L 300 749 L 301 749 L 302 750 L 303 750 L 305 752 L 306 752 L 308 754 L 309 754 L 310 755 L 311 755 L 313 757 L 314 757 L 316 759 L 317 759 L 319 761 L 320 761 L 321 762 L 322 762 L 324 764 L 325 764 L 327 766 L 328 766 L 329 767 L 330 767 L 332 769 L 333 769 L 335 771 L 336 771 L 338 773 L 339 773 L 340 774 L 341 774 L 343 776 L 344 776 L 345 777 L 346 777 L 348 779 L 349 779 L 351 781 L 352 781 L 354 783 L 355 783 L 356 784 L 357 784 L 359 786 L 360 786 L 361 787 L 362 787 L 364 789 L 365 789 L 367 791 L 368 791 L 370 793 L 371 793 L 372 794 L 373 794 L 375 796 L 376 796 L 378 798 L 379 798 L 380 799 L 381 799 L 383 801 L 384 801 L 386 803 L 387 803 L 389 805 L 390 805 L 391 806 L 392 806 L 394 808 L 395 808 L 397 810 L 398 810 L 399 811 L 400 811 L 402 813 L 403 813 L 405 815 L 406 815 L 407 816 L 408 816 L 410 818 L 411 818 L 413 820 L 414 820 L 416 822 L 417 822 L 418 823 L 419 823 L 421 825 L 422 825 L 423 826 L 424 826 L 426 828 L 427 828 L 429 830 L 430 830 L 431 831 L 432 831 L 434 833 L 435 833 L 437 835 L 438 835 L 440 837 L 441 837 L 442 838 L 443 838 L 445 840 L 446 840 L 448 842 L 449 842 L 451 844 L 452 844 L 453 845 L 454 845 L 456 847 L 457 847 L 459 849 L 460 849 L 462 851 L 463 851 L 464 852 L 465 852 L 467 854 L 468 854 L 470 856 L 471 856 L 473 858 L 474 858 L 475 859 L 476 859 L 478 861 L 479 861 L 481 863 L 482 863 L 483 864 L 484 864 L 486 866 L 487 866 L 489 868 L 490 868 L 492 870 L 493 870 L 495 872 L 496 872 L 497 873 L 498 873 L 500 875 L 501 875 L 503 877 L 504 877 L 506 879 L 507 879 L 508 880 L 509 880 L 511 882 L 512 882 L 514 884 L 515 883 L 516 883 L 518 881 L 519 881 L 521 879 L 522 879 L 524 877 L 525 877 L 527 875 L 528 875 L 530 873 L 531 873 L 532 872 L 533 872 L 535 870 L 536 870 L 538 868 L 539 868 L 541 866 L 542 866 L 544 864 L 545 864 L 547 862 L 548 862 L 549 861 L 550 861 L 552 859 L 553 859 L 555 857 L 556 857 L 558 855 L 559 855 L 561 853 L 562 853 L 564 851 L 565 851 L 566 850 L 567 850 L 569 848 L 570 848 L 572 846 L 573 846 L 574 845 L 575 845 L 577 843 L 578 843 L 580 841 L 581 841 L 583 839 L 584 839 L 586 837 L 587 837 L 588 836 L 589 836 L 591 834 L 592 834 L 594 832 L 595 832 L 597 830 L 598 830 L 599 829 L 600 829 L 603 826 L 604 826 L 605 825 L 606 825 L 608 823 L 609 823 L 611 821 L 612 821 L 614 819 L 615 819 L 616 818 L 617 818 L 619 816 L 620 816 L 622 814 L 623 814 L 625 812 L 626 812 L 628 810 L 629 810 L 631 808 L 632 808 L 633 807 L 634 807 L 636 805 L 637 805 L 639 803 L 640 803 L 642 801 L 643 801 L 644 800 L 645 800 L 647 798 L 648 798 L 650 796 L 651 796 L 653 794 L 654 794 L 656 792 L 657 792 L 658 791 L 659 791 L 661 789 L 662 789 L 664 787 L 665 787 L 667 785 L 668 785 L 670 783 L 671 783 L 673 781 L 674 781 L 675 780 L 676 780 L 678 778 L 679 778 L 681 776 L 682 776 L 684 774 L 685 774 L 686 773 L 687 773 L 689 771 L 690 771 L 692 769 L 693 769 L 695 767 L 696 767 L 698 765 L 699 765 L 701 763 L 702 763 L 703 762 L 704 762 L 706 760 L 707 760 L 709 758 L 710 758 L 711 757 L 712 757 L 714 755 L 715 755 L 717 753 L 718 753 L 720 751 L 721 751 L 722 750 L 723 750 L 725 748 L 726 748 L 728 746 L 729 746 L 731 744 L 732 744 L 733 743 L 734 743 L 736 741 L 737 741 L 739 739 L 740 739 L 742 737 L 743 737 L 744 736 L 745 736 L 747 734 L 748 734 L 750 732 L 751 732 L 752 731 L 753 731 L 755 729 L 756 729 L 758 727 L 759 727 L 761 725 L 762 725 L 763 724 L 764 724 L 766 722 L 767 722 L 769 720 L 770 720 L 772 718 L 773 718 L 774 717 L 775 717 L 777 715 L 778 715 L 780 713 L 781 713 L 783 711 L 784 711 L 786 709 L 787 709 L 788 708 L 789 708 L 791 706 L 792 706 L 794 704 L 795 704 L 796 703 L 797 703 L 799 701 L 800 701 L 802 699 L 803 699 L 805 697 L 806 697 L 807 696 L 808 696 L 810 694 L 811 694 L 813 692 L 814 692 L 815 691 L 816 691 L 819 688 L 818 687 L 818 686 L 819 685 L 819 684 L 818 683 L 818 678 L 819 677 L 819 668 L 818 667 L 818 663 L 819 662 L 819 650 L 818 649 L 818 351 L 817 351 L 816 350 L 815 350 L 813 348 L 812 348 L 811 347 L 810 347 L 808 345 L 807 345 L 806 344 L 805 344 L 803 342 L 802 342 L 800 340 L 799 340 L 798 339 L 797 339 L 795 337 L 794 337 L 792 335 L 791 335 L 790 334 L 789 334 L 787 332 L 786 332 L 784 330 L 783 330 L 782 329 L 781 329 L 779 327 L 778 327 L 777 326 L 776 326 L 774 324 L 773 324 L 771 322 L 770 322 L 769 321 L 768 321 L 766 319 L 765 319 L 763 317 L 762 317 L 760 315 L 759 315 L 758 314 L 757 314 L 755 312 L 754 312 L 752 310 L 751 310 L 750 309 L 749 309 L 747 307 L 746 307 L 744 305 L 743 305 L 741 303 L 740 303 L 739 302 L 738 302 L 736 300 L 735 300 L 734 299 L 733 299 L 731 297 L 730 297 L 729 296 L 728 296 L 726 294 L 725 294 L 723 292 L 722 292 L 721 291 L 720 291 L 718 289 L 717 289 L 716 288 L 715 288 L 713 286 L 712 286 L 710 284 L 709 284 L 707 282 L 706 282 L 705 281 L 704 281 L 702 279 L 701 279 L 699 277 L 698 277 L 696 275 L 695 275 L 694 274 L 693 274 L 691 272 L 690 272 L 688 270 L 687 270 L 686 269 L 685 269 L 683 267 L 682 267 L 680 265 L 679 265 L 678 264 L 677 264 L 675 262 L 674 262 L 672 260 L 671 260 L 670 259 L 669 259 L 667 257 L 666 257 L 664 255 L 663 255 L 661 253 L 660 253 L 659 252 L 658 252 L 656 250 L 655 250 L 654 249 L 653 249 L 651 247 L 650 247 L 648 245 L 647 245 L 646 244 L 645 244 L 643 242 L 642 242 L 641 241 L 640 241 L 638 239 L 637 239 L 635 237 L 634 237 L 633 236 L 632 236 L 630 234 L 629 234 L 628 233 L 627 233 L 625 231 L 624 231 L 623 230 L 622 230 L 620 228 L 619 228 L 618 227 L 617 227 L 615 225 L 614 225 L 612 223 L 611 223 L 610 222 L 609 222 L 607 220 L 606 220 L 605 219 L 604 219 L 602 217 L 601 217 L 599 215 L 598 215 L 596 213 L 595 213 L 594 212 L 593 212 L 591 210 L 590 210 L 589 209 L 588 209 L 586 207 L 585 207 L 583 205 L 582 205 L 581 204 L 580 204 L 578 202 L 577 202 L 575 200 L 574 200 L 573 199 L 572 199 L 570 197 L 569 197 L 568 196 L 567 196 L 565 194 L 564 194 L 563 193 L 562 193 L 560 191 L 559 191 L 557 189 L 556 189 L 555 188 L 554 188 L 552 186 L 551 186 L 549 184 L 548 184 L 547 183 L 546 183 L 544 181 L 543 181 L 541 179 L 540 179 L 539 178 L 538 178 L 536 176 L 535 176 L 533 174 L 532 174 L 531 173 L 530 173 L 528 171 L 527 171 L 525 169 L 524 169 L 523 168 L 522 168 L 520 166 L 519 166 L 517 164 L 516 164 L 515 163 L 514 163 L 513 162 Z M 511 232 L 512 231 L 514 231 L 515 232 L 516 232 L 518 234 L 519 234 L 520 235 L 521 235 L 523 237 L 524 237 L 525 238 L 526 238 L 528 240 L 529 240 L 530 241 L 531 241 L 533 243 L 534 243 L 535 244 L 536 244 L 538 246 L 539 246 L 540 247 L 541 247 L 543 249 L 544 249 L 546 251 L 547 251 L 548 252 L 549 252 L 551 254 L 552 254 L 553 255 L 554 255 L 556 257 L 557 257 L 558 258 L 559 258 L 561 260 L 562 260 L 563 261 L 564 261 L 566 263 L 567 263 L 568 264 L 569 264 L 571 266 L 572 266 L 574 268 L 575 268 L 576 269 L 577 269 L 579 271 L 580 271 L 581 272 L 582 272 L 584 274 L 585 274 L 586 275 L 587 275 L 589 277 L 590 277 L 591 278 L 592 278 L 594 280 L 595 280 L 597 282 L 598 282 L 599 283 L 600 283 L 602 285 L 603 285 L 604 286 L 605 286 L 607 288 L 608 288 L 609 289 L 607 291 L 606 291 L 604 293 L 603 293 L 602 294 L 601 294 L 599 296 L 598 296 L 596 298 L 595 298 L 594 299 L 593 299 L 591 301 L 590 301 L 588 303 L 587 303 L 586 304 L 585 304 L 583 306 L 582 306 L 580 308 L 579 308 L 578 309 L 577 309 L 575 311 L 574 311 L 573 312 L 572 312 L 570 314 L 569 314 L 567 316 L 566 316 L 565 317 L 564 317 L 562 319 L 561 319 L 559 321 L 558 321 L 557 322 L 556 322 L 554 324 L 553 324 L 551 326 L 550 326 L 549 327 L 548 327 L 546 329 L 545 329 L 543 331 L 542 331 L 541 332 L 540 332 L 538 334 L 537 334 L 536 335 L 535 335 L 533 337 L 532 337 L 530 339 L 529 339 L 527 341 L 526 341 L 525 342 L 524 342 L 522 344 L 521 344 L 519 346 L 518 346 L 517 347 L 516 347 L 514 349 L 513 349 L 511 351 L 510 351 L 509 352 L 508 352 L 506 354 L 505 354 L 503 356 L 502 356 L 501 357 L 500 357 L 498 359 L 497 359 L 495 361 L 494 361 L 492 363 L 491 363 L 489 365 L 488 365 L 487 366 L 486 366 L 484 368 L 483 368 L 481 370 L 480 370 L 478 372 L 477 372 L 475 374 L 474 374 L 473 375 L 472 375 L 470 377 L 469 377 L 467 379 L 466 379 L 464 381 L 463 381 L 461 383 L 460 383 L 458 385 L 457 385 L 456 386 L 455 386 L 453 388 L 452 388 L 450 390 L 449 390 L 448 391 L 447 391 L 445 393 L 444 393 L 442 395 L 441 395 L 439 397 L 438 397 L 436 399 L 435 399 L 434 400 L 433 400 L 431 402 L 430 402 L 428 404 L 427 404 L 425 406 L 424 406 L 422 408 L 421 408 L 420 409 L 419 409 L 417 411 L 416 411 L 414 413 L 413 413 L 412 414 L 411 414 L 409 416 L 408 416 L 406 418 L 405 418 L 403 420 L 402 420 L 400 422 L 399 422 L 398 423 L 397 423 L 395 425 L 394 425 L 392 427 L 391 427 L 389 429 L 388 429 L 386 431 L 385 431 L 384 432 L 383 432 L 381 434 L 380 434 L 378 436 L 377 436 L 375 438 L 374 438 L 372 440 L 371 440 L 369 442 L 368 442 L 366 444 L 366 630 L 367 630 L 369 632 L 370 632 L 371 633 L 372 633 L 374 635 L 375 635 L 377 637 L 378 637 L 380 639 L 381 639 L 383 641 L 384 641 L 385 642 L 386 642 L 388 644 L 389 644 L 391 646 L 392 646 L 394 648 L 395 648 L 396 649 L 397 649 L 399 651 L 400 651 L 402 653 L 403 653 L 405 655 L 406 655 L 407 656 L 408 656 L 410 658 L 411 658 L 413 660 L 414 660 L 416 662 L 417 662 L 419 664 L 420 664 L 422 666 L 423 666 L 424 667 L 425 667 L 427 669 L 428 669 L 430 671 L 431 671 L 433 673 L 434 673 L 435 674 L 436 674 L 439 677 L 440 677 L 441 678 L 442 678 L 444 680 L 445 680 L 447 682 L 448 682 L 449 683 L 450 683 L 452 685 L 453 685 L 455 687 L 456 687 L 458 689 L 459 689 L 461 691 L 462 691 L 463 692 L 464 692 L 466 694 L 467 694 L 469 696 L 470 696 L 472 698 L 473 698 L 474 699 L 475 699 L 478 702 L 479 702 L 480 703 L 481 703 L 483 705 L 484 705 L 486 707 L 487 707 L 489 709 L 490 709 L 492 711 L 493 711 L 495 713 L 496 713 L 497 714 L 498 714 L 500 716 L 501 716 L 503 718 L 504 718 L 506 720 L 507 720 L 509 722 L 510 722 L 511 723 L 512 723 L 514 725 L 515 725 L 517 727 L 518 727 L 520 729 L 521 729 L 523 731 L 524 731 L 525 730 L 526 730 L 527 729 L 528 729 L 530 727 L 531 727 L 533 725 L 534 725 L 536 723 L 537 723 L 539 721 L 540 721 L 541 720 L 542 720 L 544 718 L 545 718 L 547 716 L 548 716 L 550 714 L 551 714 L 553 712 L 554 712 L 555 711 L 556 711 L 558 709 L 559 709 L 561 707 L 562 707 L 564 705 L 565 705 L 567 703 L 568 703 L 569 702 L 570 702 L 573 699 L 574 699 L 575 698 L 576 698 L 578 696 L 579 696 L 581 694 L 582 694 L 584 692 L 585 692 L 586 691 L 587 691 L 589 689 L 590 689 L 592 687 L 593 687 L 595 685 L 596 685 L 598 683 L 599 683 L 601 681 L 602 681 L 604 679 L 605 679 L 607 677 L 608 677 L 609 676 L 610 676 L 612 674 L 613 674 L 615 672 L 616 672 L 618 670 L 619 670 L 621 668 L 622 668 L 623 667 L 624 667 L 626 665 L 627 665 L 629 663 L 630 663 L 631 662 L 632 662 L 634 660 L 635 660 L 637 658 L 638 658 L 640 656 L 641 656 L 642 655 L 643 655 L 645 653 L 646 653 L 648 651 L 649 651 L 650 650 L 651 650 L 653 648 L 654 648 L 656 646 L 657 646 L 658 645 L 659 645 L 660 644 L 660 458 L 659 459 L 658 459 L 657 460 L 656 460 L 655 461 L 654 461 L 652 463 L 651 463 L 649 465 L 648 465 L 646 467 L 645 467 L 644 468 L 643 468 L 641 470 L 640 470 L 638 472 L 637 472 L 636 473 L 635 473 L 633 475 L 632 475 L 630 477 L 629 477 L 628 478 L 627 478 L 625 480 L 624 480 L 622 482 L 621 482 L 619 484 L 618 484 L 617 485 L 616 485 L 614 487 L 613 487 L 611 489 L 610 489 L 608 491 L 607 491 L 606 492 L 605 492 L 603 494 L 602 494 L 600 496 L 599 496 L 597 498 L 596 498 L 595 499 L 594 499 L 592 501 L 591 501 L 589 503 L 588 503 L 587 504 L 586 504 L 584 506 L 583 506 L 581 508 L 580 508 L 578 510 L 577 510 L 576 511 L 575 511 L 573 513 L 572 513 L 570 515 L 569 515 L 567 517 L 566 517 L 565 518 L 564 518 L 562 520 L 561 520 L 559 522 L 558 522 L 556 524 L 555 524 L 553 526 L 552 526 L 550 528 L 549 528 L 547 530 L 546 530 L 544 532 L 543 532 L 542 533 L 541 533 L 539 535 L 538 535 L 536 537 L 535 537 L 533 539 L 532 539 L 530 541 L 529 541 L 527 543 L 526 543 L 524 545 L 523 545 L 521 547 L 520 547 L 519 548 L 518 548 L 516 546 L 515 546 L 513 544 L 512 544 L 510 542 L 509 542 L 508 541 L 507 541 L 505 539 L 504 539 L 502 537 L 501 537 L 499 535 L 498 535 L 497 534 L 496 534 L 494 532 L 493 532 L 491 530 L 490 530 L 488 528 L 487 528 L 485 526 L 484 526 L 483 525 L 482 525 L 480 523 L 479 523 L 477 521 L 476 521 L 474 519 L 473 519 L 472 518 L 471 518 L 469 516 L 468 516 L 466 514 L 465 514 L 464 513 L 463 513 L 461 511 L 460 511 L 459 510 L 458 510 L 456 508 L 455 508 L 453 506 L 452 506 L 450 504 L 449 504 L 448 503 L 447 503 L 445 501 L 444 501 L 442 499 L 442 505 L 443 506 L 444 506 L 446 508 L 447 508 L 449 510 L 450 510 L 451 511 L 452 511 L 454 513 L 455 513 L 457 515 L 458 515 L 459 516 L 460 516 L 462 518 L 463 518 L 465 520 L 466 520 L 467 521 L 468 521 L 470 523 L 471 523 L 473 525 L 474 525 L 476 527 L 477 527 L 478 528 L 479 528 L 481 530 L 482 530 L 484 532 L 485 532 L 486 533 L 487 533 L 489 535 L 490 535 L 492 537 L 493 537 L 494 538 L 495 538 L 497 540 L 498 540 L 500 542 L 501 542 L 502 543 L 503 543 L 505 545 L 506 545 L 507 546 L 508 546 L 510 548 L 511 548 L 513 550 L 514 550 L 515 551 L 515 615 L 516 614 L 517 614 L 519 612 L 520 612 L 522 610 L 523 610 L 525 608 L 526 608 L 528 606 L 529 606 L 531 604 L 532 604 L 534 602 L 535 602 L 537 600 L 538 600 L 540 598 L 541 598 L 543 596 L 544 596 L 546 594 L 547 594 L 548 593 L 549 593 L 552 590 L 553 590 L 554 589 L 555 589 L 557 587 L 558 587 L 560 585 L 561 585 L 563 583 L 564 583 L 566 581 L 567 581 L 569 579 L 570 579 L 571 578 L 572 578 L 574 576 L 575 576 L 577 574 L 578 574 L 580 572 L 581 572 L 583 570 L 584 570 L 586 568 L 587 568 L 589 566 L 590 566 L 592 564 L 593 564 L 595 562 L 596 562 L 598 560 L 599 560 L 601 558 L 602 558 L 603 559 L 603 567 L 602 568 L 602 570 L 603 571 L 603 572 L 602 573 L 603 574 L 603 580 L 602 581 L 603 582 L 603 596 L 602 597 L 602 599 L 603 600 L 603 616 L 601 618 L 600 618 L 598 620 L 597 620 L 595 622 L 594 622 L 592 624 L 591 624 L 590 625 L 589 625 L 586 628 L 585 628 L 583 630 L 582 630 L 580 632 L 579 632 L 577 634 L 576 634 L 574 636 L 573 636 L 571 638 L 570 638 L 568 640 L 567 640 L 565 642 L 564 642 L 562 644 L 561 644 L 559 646 L 558 646 L 556 648 L 555 648 L 553 650 L 552 650 L 550 652 L 549 652 L 547 654 L 546 654 L 544 656 L 543 656 L 542 657 L 541 657 L 538 660 L 537 660 L 536 661 L 535 661 L 533 663 L 532 663 L 530 665 L 529 665 L 528 666 L 527 665 L 526 665 L 524 663 L 523 663 L 521 661 L 520 661 L 519 660 L 518 660 L 516 658 L 515 658 L 513 656 L 512 656 L 510 654 L 509 654 L 507 652 L 506 652 L 505 651 L 504 651 L 502 649 L 501 649 L 500 648 L 499 648 L 497 646 L 496 646 L 494 644 L 493 644 L 492 643 L 491 643 L 489 641 L 488 641 L 486 639 L 485 639 L 484 638 L 483 638 L 481 636 L 480 636 L 478 634 L 477 634 L 476 633 L 475 633 L 473 631 L 472 631 L 470 629 L 469 629 L 468 628 L 467 628 L 465 626 L 464 626 L 462 624 L 461 624 L 460 623 L 459 623 L 457 621 L 456 621 L 454 619 L 453 619 L 452 618 L 451 618 L 449 616 L 448 616 L 446 614 L 445 614 L 443 612 L 442 612 L 441 611 L 440 611 L 438 609 L 437 609 L 435 607 L 434 607 L 432 605 L 431 605 L 429 603 L 428 603 L 426 601 L 425 601 L 422 598 L 422 475 L 423 474 L 424 474 L 426 472 L 427 472 L 429 470 L 430 470 L 431 469 L 432 469 L 434 467 L 435 467 L 437 465 L 438 465 L 440 463 L 441 463 L 443 461 L 444 461 L 445 460 L 446 460 L 448 458 L 449 458 L 451 456 L 452 456 L 454 454 L 455 454 L 456 453 L 457 453 L 459 451 L 460 451 L 462 449 L 463 449 L 465 447 L 466 447 L 467 446 L 468 446 L 470 444 L 471 444 L 473 442 L 474 442 L 476 440 L 477 440 L 479 438 L 480 438 L 481 437 L 482 437 L 484 435 L 485 435 L 487 433 L 488 433 L 489 432 L 490 432 L 492 430 L 493 430 L 495 428 L 496 428 L 497 427 L 498 427 L 500 425 L 501 425 L 503 423 L 504 423 L 506 421 L 507 421 L 508 420 L 509 420 L 511 418 L 512 418 L 514 416 L 515 416 L 516 415 L 517 415 L 519 413 L 520 413 L 522 411 L 523 411 L 524 410 L 525 410 L 527 408 L 528 408 L 530 406 L 531 406 L 533 404 L 534 404 L 536 402 L 537 402 L 538 401 L 539 401 L 541 399 L 542 399 L 544 397 L 545 397 L 547 395 L 548 395 L 549 394 L 550 394 L 552 392 L 553 392 L 555 390 L 556 390 L 557 389 L 558 389 L 560 387 L 561 387 L 563 385 L 564 385 L 566 383 L 567 383 L 568 382 L 569 382 L 571 380 L 572 380 L 574 378 L 575 378 L 576 377 L 577 377 L 579 375 L 580 375 L 582 373 L 583 373 L 584 372 L 585 372 L 587 370 L 588 370 L 590 368 L 591 368 L 593 366 L 594 366 L 595 365 L 596 365 L 598 363 L 599 363 L 601 361 L 602 361 L 604 359 L 605 359 L 606 358 L 607 358 L 609 356 L 610 356 L 612 354 L 613 354 L 615 352 L 616 352 L 617 351 L 618 351 L 620 349 L 621 349 L 623 347 L 624 347 L 626 345 L 627 345 L 628 344 L 629 344 L 631 342 L 632 342 L 634 340 L 635 340 L 636 339 L 637 339 L 639 337 L 640 337 L 642 335 L 643 335 L 644 334 L 645 334 L 647 332 L 648 332 L 650 330 L 651 330 L 653 328 L 654 328 L 655 327 L 656 327 L 658 325 L 659 325 L 661 323 L 664 323 L 665 324 L 666 324 L 667 325 L 668 325 L 670 327 L 671 327 L 673 329 L 674 329 L 675 330 L 676 330 L 678 332 L 679 332 L 681 334 L 682 334 L 683 335 L 684 335 L 686 337 L 687 337 L 689 339 L 690 339 L 691 340 L 692 340 L 694 342 L 695 342 L 697 344 L 698 344 L 699 345 L 700 345 L 702 347 L 703 347 L 705 349 L 706 349 L 707 350 L 708 350 L 710 352 L 711 352 L 713 354 L 714 354 L 716 356 L 717 356 L 718 357 L 719 357 L 721 359 L 722 359 L 724 361 L 725 361 L 727 363 L 728 363 L 729 364 L 730 364 L 732 366 L 733 366 L 735 368 L 736 368 L 738 370 L 739 370 L 740 371 L 741 371 L 743 373 L 744 373 L 746 375 L 747 375 L 748 376 L 749 376 L 751 378 L 752 378 L 754 380 L 755 380 L 756 381 L 757 381 L 760 384 L 760 659 L 758 661 L 757 661 L 755 663 L 754 663 L 752 665 L 751 665 L 749 667 L 748 667 L 747 668 L 746 668 L 744 670 L 743 670 L 741 672 L 740 672 L 739 673 L 738 673 L 736 675 L 735 675 L 733 677 L 732 677 L 730 679 L 729 679 L 728 680 L 727 680 L 725 682 L 724 682 L 722 684 L 721 684 L 720 685 L 719 685 L 717 687 L 716 687 L 714 689 L 713 689 L 712 690 L 711 690 L 709 692 L 708 692 L 706 694 L 705 694 L 703 696 L 702 696 L 701 697 L 700 697 L 698 699 L 697 699 L 695 701 L 694 701 L 692 703 L 691 703 L 690 704 L 689 704 L 687 706 L 686 706 L 684 708 L 683 708 L 681 710 L 680 710 L 679 711 L 678 711 L 676 713 L 675 713 L 673 715 L 672 715 L 670 717 L 669 717 L 668 718 L 667 718 L 665 720 L 664 720 L 662 722 L 661 722 L 659 724 L 658 724 L 657 725 L 656 725 L 654 727 L 653 727 L 651 729 L 650 729 L 648 731 L 647 731 L 646 732 L 645 732 L 643 734 L 642 734 L 640 736 L 639 736 L 637 738 L 636 738 L 635 739 L 634 739 L 632 741 L 631 741 L 629 743 L 628 743 L 626 745 L 625 745 L 624 746 L 623 746 L 621 748 L 620 748 L 618 750 L 617 750 L 615 752 L 614 752 L 613 753 L 612 753 L 610 755 L 609 755 L 607 757 L 606 757 L 604 759 L 603 759 L 602 760 L 601 760 L 599 762 L 598 762 L 596 764 L 595 764 L 593 766 L 592 766 L 590 768 L 589 768 L 587 770 L 586 770 L 585 771 L 584 771 L 582 773 L 581 773 L 579 775 L 578 775 L 576 777 L 575 777 L 573 779 L 572 779 L 570 781 L 569 781 L 567 783 L 566 783 L 564 785 L 563 785 L 561 787 L 560 787 L 558 789 L 557 789 L 555 791 L 554 791 L 552 793 L 551 793 L 549 795 L 548 795 L 546 797 L 545 797 L 543 799 L 542 799 L 540 801 L 539 801 L 537 803 L 536 803 L 534 805 L 533 805 L 531 807 L 530 807 L 528 809 L 527 809 L 525 811 L 524 811 L 522 813 L 521 813 L 519 815 L 518 815 L 517 816 L 516 816 L 515 817 L 513 815 L 512 815 L 510 813 L 509 813 L 508 812 L 507 812 L 505 810 L 504 810 L 502 808 L 501 808 L 499 806 L 498 806 L 496 804 L 495 804 L 493 802 L 492 802 L 491 801 L 490 801 L 488 799 L 487 799 L 485 797 L 484 797 L 482 795 L 481 795 L 479 793 L 478 793 L 477 792 L 476 792 L 474 790 L 473 790 L 471 788 L 470 788 L 468 786 L 467 786 L 466 785 L 465 785 L 463 783 L 462 783 L 460 781 L 459 781 L 457 779 L 456 779 L 454 777 L 453 777 L 452 776 L 451 776 L 449 774 L 448 774 L 446 772 L 445 772 L 444 771 L 443 771 L 441 769 L 440 769 L 438 767 L 437 767 L 435 765 L 434 765 L 433 764 L 432 764 L 430 762 L 429 762 L 427 760 L 426 760 L 424 758 L 423 758 L 422 757 L 421 757 L 419 755 L 418 755 L 416 753 L 415 753 L 414 752 L 413 752 L 411 750 L 410 750 L 408 748 L 407 748 L 406 747 L 405 747 L 403 745 L 402 745 L 400 743 L 399 743 L 397 741 L 396 741 L 395 740 L 394 740 L 392 738 L 391 738 L 389 736 L 388 736 L 387 735 L 386 735 L 384 733 L 383 733 L 381 731 L 380 731 L 378 729 L 377 729 L 376 728 L 376 656 L 374 654 L 373 654 L 371 652 L 371 723 L 370 724 L 369 724 L 368 723 L 367 723 L 366 722 L 365 722 L 363 720 L 362 720 L 360 718 L 359 718 L 358 717 L 357 717 L 355 715 L 354 715 L 352 713 L 351 713 L 349 711 L 348 711 L 347 710 L 346 710 L 344 708 L 343 708 L 341 706 L 340 706 L 339 705 L 338 705 L 336 703 L 335 703 L 333 701 L 332 701 L 331 700 L 330 700 L 328 698 L 327 698 L 325 696 L 324 696 L 323 695 L 322 695 L 320 693 L 319 693 L 317 691 L 316 691 L 315 690 L 314 690 L 312 688 L 311 688 L 309 686 L 308 686 L 306 684 L 305 684 L 304 683 L 303 683 L 301 681 L 300 681 L 299 680 L 298 680 L 296 678 L 295 678 L 293 676 L 292 676 L 290 674 L 289 674 L 288 673 L 287 673 L 285 671 L 284 671 L 283 670 L 282 670 L 280 668 L 279 668 L 277 666 L 276 666 L 275 665 L 274 665 L 272 663 L 271 663 L 269 661 L 268 661 L 267 660 L 267 384 L 270 381 L 271 381 L 272 380 L 273 380 L 275 378 L 276 378 L 278 376 L 279 376 L 280 375 L 281 375 L 283 373 L 284 373 L 285 372 L 286 372 L 288 370 L 289 370 L 291 368 L 292 368 L 293 367 L 294 367 L 296 365 L 297 365 L 299 363 L 300 363 L 301 362 L 302 362 L 304 360 L 305 360 L 307 358 L 308 358 L 309 357 L 310 357 L 312 355 L 313 355 L 315 353 L 316 353 L 317 352 L 318 352 L 320 350 L 321 350 L 323 348 L 324 348 L 326 346 L 327 346 L 328 345 L 329 345 L 331 343 L 332 343 L 334 341 L 335 341 L 336 340 L 337 340 L 339 338 L 340 338 L 341 337 L 342 337 L 344 335 L 345 335 L 346 334 L 347 334 L 349 332 L 350 332 L 352 330 L 353 330 L 354 329 L 355 329 L 357 327 L 358 327 L 359 326 L 360 326 L 362 324 L 363 324 L 365 322 L 366 322 L 368 320 L 369 320 L 370 319 L 371 319 L 373 317 L 374 317 L 376 315 L 377 315 L 378 314 L 379 314 L 381 312 L 382 312 L 384 310 L 385 310 L 386 309 L 387 309 L 389 307 L 390 307 L 392 305 L 393 305 L 394 304 L 395 304 L 397 302 L 398 302 L 400 300 L 401 300 L 402 299 L 403 299 L 405 297 L 406 297 L 407 296 L 408 296 L 410 294 L 411 294 L 413 292 L 414 292 L 415 291 L 416 291 L 418 289 L 419 289 L 421 287 L 422 287 L 423 286 L 424 286 L 426 284 L 427 284 L 429 282 L 430 282 L 431 281 L 432 281 L 434 279 L 435 279 L 437 277 L 438 277 L 439 276 L 440 276 L 442 274 L 443 274 L 444 273 L 445 273 L 447 271 L 448 271 L 450 269 L 451 269 L 452 268 L 453 268 L 455 266 L 456 266 L 458 264 L 459 264 L 460 263 L 461 263 L 463 261 L 464 261 L 466 259 L 467 259 L 468 258 L 469 258 L 471 256 L 472 256 L 473 255 L 474 255 L 476 253 L 477 253 L 478 252 L 479 252 L 481 250 L 482 250 L 484 248 L 485 248 L 486 247 L 487 247 L 489 245 L 490 245 L 491 244 L 492 244 L 494 242 L 495 242 L 497 240 L 498 240 L 500 238 L 501 238 L 502 237 L 503 237 L 505 235 L 506 235 L 508 233 L 509 233 L 510 232 Z M 518 742 L 518 799 L 520 797 L 521 797 L 523 795 L 523 745 L 522 744 L 521 744 L 520 743 L 519 743 Z M 288 574 L 288 580 L 289 581 L 290 581 L 292 583 L 293 583 L 294 584 L 295 584 L 296 585 L 297 585 L 299 587 L 300 587 L 301 588 L 302 588 L 303 589 L 304 589 L 306 591 L 307 591 L 308 592 L 309 592 L 311 594 L 312 594 L 313 595 L 314 595 L 316 597 L 317 597 L 318 598 L 319 598 L 321 600 L 322 600 L 323 601 L 324 601 L 326 603 L 327 603 L 328 604 L 329 604 L 331 606 L 332 606 L 333 607 L 334 607 L 336 609 L 337 609 L 338 610 L 339 610 L 340 611 L 341 611 L 343 613 L 344 613 L 345 614 L 346 614 L 348 616 L 349 616 L 350 617 L 351 617 L 353 619 L 353 613 L 351 611 L 350 611 L 349 610 L 348 610 L 346 608 L 345 608 L 344 607 L 343 607 L 341 605 L 340 605 L 339 604 L 338 604 L 337 603 L 336 603 L 334 601 L 333 601 L 332 600 L 331 600 L 329 598 L 328 598 L 327 597 L 326 597 L 324 595 L 323 595 L 322 594 L 321 594 L 319 592 L 318 592 L 317 591 L 316 591 L 315 590 L 314 590 L 312 588 L 311 588 L 310 587 L 309 587 L 308 586 L 307 586 L 305 584 L 304 584 L 302 582 L 301 582 L 300 581 L 299 581 L 298 580 L 297 580 L 295 578 L 294 578 L 293 577 L 292 577 L 290 575 L 289 575 Z M 288 406 L 288 412 L 289 412 L 291 414 L 292 414 L 294 416 L 295 416 L 297 418 L 298 418 L 300 420 L 301 420 L 302 421 L 303 421 L 304 422 L 305 422 L 307 424 L 308 424 L 310 426 L 311 426 L 312 427 L 313 427 L 315 429 L 316 429 L 317 430 L 318 430 L 319 431 L 320 431 L 322 433 L 323 433 L 324 434 L 325 434 L 327 436 L 328 436 L 329 437 L 330 437 L 332 439 L 333 439 L 334 440 L 335 440 L 336 441 L 337 441 L 339 443 L 340 443 L 342 445 L 343 445 L 344 446 L 345 446 L 347 448 L 348 448 L 349 449 L 351 449 L 353 447 L 353 446 L 351 444 L 350 444 L 348 442 L 347 442 L 346 441 L 345 441 L 343 439 L 342 439 L 341 438 L 340 438 L 338 436 L 337 436 L 336 435 L 335 435 L 333 433 L 332 433 L 331 432 L 330 432 L 328 430 L 327 430 L 326 429 L 325 429 L 323 427 L 322 427 L 321 426 L 320 426 L 318 424 L 317 424 L 316 423 L 315 423 L 314 422 L 313 422 L 311 420 L 310 420 L 309 419 L 308 419 L 307 418 L 306 418 L 304 416 L 303 416 L 301 414 L 300 414 L 299 413 L 298 413 L 296 411 L 295 411 L 293 409 L 292 409 L 291 408 L 290 408 Z" fill="#000000" fill-rule="evenodd" stroke="none" /></svg>